<?xml version="1.0" standalone="no"?><!DOCTYPE svg PUBLIC "-//W3C//DTD SVG 1.1//EN" "http://www.w3.org/Graphics/SVG/1.1/DTD/svg11.dtd"><svg t="1727166897689" class="icon" viewBox="0 0 1024 1024" version="1.1" xmlns="http://www.w3.org/2000/svg" p-id="2708" xmlns:xlink="http://www.w3.org/1999/xlink" width="200" height="200"><path d="M964.266667 0H689.066667c-19.2 0-34.133333 14.933333-34.133334 34.133333V42.666667c0 19.2 14.933333 34.133333 34.133334 34.133333h181.333333l-578.133333 576c-14.933333 14.933333-14.933333 38.4 0 53.333333s38.4 14.933333 53.333333 0L979.2 70.4c10.666667-6.4 17.066667-17.066667 17.066667-29.866667v-6.4c2.133333-19.2-12.8-34.133333-32-34.133333z" fill="#ffffff" p-id="2709"></path><path d="M881.066667 1024H140.8c-64 0-115.2-53.333333-115.2-119.466667V119.466667C25.6 53.333333 76.8 0 140.8 0h277.333333c21.333333 0 38.4 17.066667 38.4 38.4s-17.066667 38.4-38.4 38.4h-277.333333c-21.333333 0-40.533333 21.333333-40.533333 44.8v785.066667c0 25.6 19.2 44.8 40.533333 44.8h740.266667c21.333333 0 40.533333-21.333333 40.533333-44.8V428.8c0-21.333333 17.066667-38.4 38.4-38.4s38.4 17.066667 38.4 38.4v475.733333c-2.133333 66.133333-53.333333 119.466667-117.333333 119.466667z" fill="#ffffff" p-id="2710"></path></svg>